<mxfile host="app.diagrams.net" modified="2023-12-22T07:46:52.623Z" agent="Mozilla/5.0 (Macintosh; Intel Mac OS X 10_15_7) AppleWebKit/537.36 (KHTML, like Gecko) Chrome/120.0.0.0 Safari/537.36" etag="NjmTT2Uuy-y8S20Lunqp" version="22.1.11" type="github">
  <diagram name="第 1 页" id="qbcq0HSddqmyH18pInoi">
    <mxGraphModel dx="954" dy="606" grid="1" gridSize="10" guides="1" tooltips="1" connect="1" arrows="1" fold="1" page="1" pageScale="1" pageWidth="827" pageHeight="1169" math="0" shadow="0">
      <root>
        <mxCell id="0" />
        <mxCell id="1" parent="0" />
        <mxCell id="Vjg9qxUvn2heQVp0XPwC-1" value="" style="verticalLabelPosition=bottom;html=1;verticalAlign=top;align=center;strokeColor=none;fillColor=#00BEF2;shape=mxgraph.azure.file_2;pointerEvents=1;" vertex="1" parent="1">
          <mxGeometry x="60" y="210" width="47.5" height="50" as="geometry" />
        </mxCell>
        <mxCell id="Vjg9qxUvn2heQVp0XPwC-2" value="" style="verticalLabelPosition=bottom;html=1;verticalAlign=top;align=center;strokeColor=none;fillColor=#00BEF2;shape=mxgraph.azure.file_2;pointerEvents=1;" vertex="1" parent="1">
          <mxGeometry x="280" y="130" width="47.5" height="50" as="geometry" />
        </mxCell>
        <mxCell id="Vjg9qxUvn2heQVp0XPwC-3" value="" style="verticalLabelPosition=bottom;html=1;verticalAlign=top;align=center;strokeColor=none;fillColor=#00BEF2;shape=mxgraph.azure.file_2;pointerEvents=1;" vertex="1" parent="1">
          <mxGeometry x="280" y="210" width="47.5" height="50" as="geometry" />
        </mxCell>
        <mxCell id="Vjg9qxUvn2heQVp0XPwC-4" value="" style="verticalLabelPosition=bottom;html=1;verticalAlign=top;align=center;strokeColor=none;fillColor=#00BEF2;shape=mxgraph.azure.file_2;pointerEvents=1;" vertex="1" parent="1">
          <mxGeometry x="280" y="290" width="47.5" height="50" as="geometry" />
        </mxCell>
        <mxCell id="Vjg9qxUvn2heQVp0XPwC-5" value="" style="shape=singleArrow;whiteSpace=wrap;html=1;" vertex="1" parent="1">
          <mxGeometry x="150" y="217.5" width="90" height="35" as="geometry" />
        </mxCell>
        <mxCell id="Vjg9qxUvn2heQVp0XPwC-6" value="将一个Datalog规则文件拆分到各个分立规则" style="text;html=1;strokeColor=none;fillColor=none;align=center;verticalAlign=middle;whiteSpace=wrap;rounded=0;" vertex="1" parent="1">
          <mxGeometry x="147.5" y="260" width="95" height="30" as="geometry" />
        </mxCell>
      </root>
    </mxGraphModel>
  </diagram>
</mxfile>
